<svg xmlns="http://www.w3.org/2000/svg" viewBox="0 0 512 512" width="100%" height="100%">
  <defs>
    <linearGradient id="amberGrad" x1="0%" y1="0%" x2="100%" y2="100%">
      <stop offset="0%" stop-color="#fbbf24"/>
      <stop offset="50%" stop-color="#d97706"/>
      <stop offset="100%" stop-color="#b45309"/>
    </linearGradient>
    <filter id="glow" x="-20%" y="-20%" width="140%" height="140%">
      <feDropShadow dx="0" dy="6" stdDeviation="8" flood-color="#d97706" flood-opacity="0.3"/>
    </filter>
  </defs>

  <!-- Serving Tray Base -->
  <path d="M 96 384 L 416 384 C 432 384 444 394 440 406 L 428 424 C 424 430 412 434 396 434 L 116 434 C 100 434 88 430 84 424 L 72 406 C 68 394 80 384 96 384 Z" fill="#334155"/>

  <!-- Main Cloche Dome -->
  <path d="M 112 360 C 112 216 210 160 256 160 C 302 160 400 216 400 360 Z" fill="none" stroke="url(#amberGrad)" stroke-width="28" stroke-linecap="round" filter="url(#glow)"/>
  
  <!-- Cloche Handle Knob -->
  <path d="M 224 144 C 224 130 238 120 256 120 C 274 120 288 130 288 144 L 288 160 L 224 160 Z" fill="url(#amberGrad)"/>

  <!-- Question Mark Steam Rising from Cloche -->
  <path d="M 280 210 C 310 180 370 180 370 120 C 370 70 300 60 270 95" fill="none" stroke="url(#amberGrad)" stroke-width="22" stroke-linecap="round" filter="url(#glow)"/>
  <circle cx="260" cy="245" r="13" fill="url(#amberGrad)"/>
</svg>
